<?xml version="1.0" standalone="no"?>
<!DOCTYPE svg PUBLIC "-//W3C//DTD SVG 20010904//EN"
 "http://www.w3.org/TR/2001/REC-SVG-20010904/DTD/svg10.dtd">
<svg version="1.0" xmlns="http://www.w3.org/2000/svg"
 width="171.000000pt" height="51.000000pt" viewBox="0 0 171.000000 51.000000"
 preserveAspectRatio="xMidYMid meet">

<g transform="translate(0.000000,51.000000) scale(0.100000,-0.100000)"
fill="#000000" stroke="none">
<path d="M24 487 c-2 -7 -3 -102 -2 -212 l3 -200 53 200 c29 110 52 206 52
213 0 17 -99 17 -106 -1z"/>
<path d="M210 489 c0 -16 131 -421 135 -417 1 1 22 91 45 198 23 107 44 203
46 213 5 15 -5 17 -110 17 -79 0 -116 -4 -116 -11z"/>
<path d="M1030 430 l-63 -71 -63 68 -63 68 -1 -127 0 -128 26 0 c25 0 26 1 22
65 -1 36 -2 65 -1 65 1 0 20 -19 41 -41 l39 -42 41 44 41 44 1 -67 c0 -66 1
-68 25 -68 l25 0 0 130 c0 72 -2 130 -4 130 -2 0 -32 -32 -66 -70z"/>
<path d="M1150 372 l0 -132 25 0 c24 0 25 2 25 71 l0 71 80 -72 80 -72 0 131
c0 124 -1 131 -20 131 -18 0 -20 -7 -20 -77 l0 -77 -47 44 c-27 25 -65 61 -85
80 l-38 34 0 -132z"/>
<path d="M1420 370 l0 -130 25 0 25 0 0 130 0 130 -25 0 -25 0 0 -130z"/>
<path d="M1530 370 l0 -130 85 0 c78 0 85 2 85 20 0 18 -7 20 -60 20 l-60 0 0
110 0 110 -25 0 -25 0 0 -130z"/>
<path d="M621 371 c-28 -66 -51 -122 -51 -125 0 -13 48 -5 54 9 4 11 20 15 56
15 36 0 52 -4 56 -15 4 -8 18 -15 34 -15 l28 0 -56 125 c-31 69 -59 125 -63
125 -4 0 -30 -54 -58 -119z m74 -17 c19 -46 20 -44 -15 -44 -16 0 -30 3 -30 7
0 9 23 73 27 73 1 0 10 -16 18 -36z"/>
<path d="M447 262 c-20 -97 -37 -183 -37 -189 0 -8 15 -13 40 -13 l40 0 0 190
c0 105 -1 190 -2 190 -2 0 -20 -80 -41 -178z"/>
<path d="M152 292 c-12 -38 -22 -71 -22 -75 0 -4 12 -7 28 -7 22 0 34 -11 66
-60 21 -33 40 -60 41 -60 4 0 -83 261 -88 266 -2 2 -13 -27 -25 -64z"/>
<path d="M587 203 c20 -4 22 -11 26 -76 l3 -72 2 72 c2 66 4 72 25 76 12 2 0
4 -28 4 -27 0 -40 -2 -28 -4z"/>
<path d="M883 135 c0 -44 2 -61 4 -37 2 23 2 59 0 80 -2 20 -4 1 -4 -43z"/>
<path d="M1223 135 c0 -44 2 -61 4 -37 2 23 2 59 0 80 -2 20 -4 1 -4 -43z"/>
<path d="M698 143 c7 -3 16 -2 19 1 4 3 -2 6 -13 5 -11 0 -14 -3 -6 -6z"/>
<path d="M787 132 c-22 -24 -22 -46 0 -63 15 -13 15 -12 2 9 -18 29 -1 57 34
57 14 -1 23 3 21 7 -9 14 -41 8 -57 -10z"/>
<path d="M910 146 c0 -2 9 -6 20 -9 11 -3 18 -1 14 4 -5 9 -34 13 -34 5z"/>
<path d="M1038 140 c17 -7 22 -18 24 -47 l1 -38 4 33 c5 37 -10 62 -36 61 -11
0 -9 -3 7 -9z"/>
<path d="M1148 140 c30 -12 38 -38 22 -64 -12 -19 -12 -20 3 -7 32 25 9 82
-31 80 -12 0 -10 -3 6 -9z"/>
<path d="M1276 134 c-21 -20 -20 -48 1 -65 15 -13 15 -12 3 7 -16 26 -8 52 22
64 16 6 18 9 6 9 -9 1 -24 -6 -32 -15z"/>
<path d="M1400 146 c0 -9 40 -13 46 -5 3 5 -6 9 -20 9 -14 0 -26 -2 -26 -4z"/>
<path d="M1558 143 c7 -3 16 -2 19 1 4 3 -2 6 -13 5 -11 0 -14 -3 -6 -6z"/>
<path d="M1647 143 c-3 -5 5 -8 18 -8 13 0 21 3 18 8 -2 4 -10 7 -18 7 -8 0
-16 -3 -18 -7z"/>
<path d="M664 114 c-5 -18 -1 -30 12 -42 10 -10 13 -10 6 -2 -20 23 -14 30 28
30 22 0 40 3 40 8 0 4 -18 6 -40 4 -34 -3 -39 -2 -34 12 3 9 3 16 0 16 -3 0
-9 -12 -12 -26z"/>
<path d="M993 100 c0 -25 2 -35 4 -22 2 12 2 32 0 45 -2 12 -4 2 -4 -23z"/>
<path d="M1105 129 c-4 -6 -5 -12 -2 -15 2 -3 7 2 10 11 7 17 1 20 -8 4z"/>
<path d="M1336 127 c3 -10 9 -15 12 -12 3 3 0 11 -7 18 -10 9 -11 8 -5 -6z"/>
<path d="M1483 100 c0 -25 2 -35 4 -22 2 12 2 32 0 45 -2 12 -4 2 -4 -23z"/>
<path d="M1524 114 c-5 -18 -1 -30 12 -42 10 -10 13 -10 6 -2 -20 23 -14 30
28 30 22 0 40 3 40 8 0 4 -18 6 -40 4 -34 -3 -39 -2 -34 12 3 9 3 16 0 16 -3
0 -9 -12 -12 -26z"/>
<path d="M1381 100 c-1 -19 -2 -46 -4 -59 -1 -13 4 -25 11 -27 7 -1 8 0 2 3
-18 9 -11 33 13 43 18 7 19 9 3 9 -10 1 -16 6 -13 14 2 6 1 21 -3 32 -6 16 -8
12 -9 -15z"/>
<path d="M952 90 c0 -19 2 -27 5 -17 2 9 2 25 0 35 -3 9 -5 1 -5 -18z"/>
<path d="M1647 109 c7 -7 15 -10 18 -7 3 3 -2 9 -12 12 -14 6 -15 5 -6 -5z"/>
<path d="M1684 80 c0 -13 4 -16 10 -10 7 7 7 13 0 20 -6 6 -10 3 -10 -10z"/>
<path d="M1332 74 c-7 -8 -8 -14 -3 -14 10 0 25 19 20 25 -2 1 -10 -3 -17 -11z"/>
<path d="M1445 51 c5 -9 1 -19 -10 -28 -11 -7 -14 -13 -8 -13 6 0 16 7 23 15
11 13 11 18 0 28 -10 10 -11 9 -5 -2z"/>
</g>
</svg>
